<svg width="5200" height="1200" xmlns="http://www.w3.org/2000/svg" xml:space="preserve">
 <g>
  <title>Logo and Text</title>
  <!-- Logo on the left -->
  <g stroke="null" id="svg_1">
   <path stroke="null" fill="#28546b" d="m836.96086,967.09767c-41.67893,-0.20276 -83.35727,-0.42754 -125.03562,-0.58744c-7.31223,-0.02781 -14.09902,-1.3562 -20.124,-5.89289c-7.34757,-5.53197 -11.90918,-12.60321 -12.33845,-21.85328c-0.31979,-6.89222 -0.0336,-13.81226 -0.03244,-20.71954q0.01217,-87.17676 0.01738,-174.35179c0.00058,-7.91647 0.08632,-15.83468 -0.04982,-23.74883c-0.21667,-12.58003 -8.07115,-20.931 -20.65871,-22.05257c-2.68459,-0.23984 -5.39931,-0.20566 -8.10012,-0.20624c-67.38472,-0.01854 -134.76943,-0.08864 -202.15357,0.03824c-9.38853,0.01738 -16.86124,-3.26218 -22.89491,-10.27085c-3.65206,-4.24181 -5.72604,-9.01429 -5.69186,-14.72585c0.07705,-12.93632 0.06662,-25.87264 -0.01332,-38.80895c-0.21841,-35.4564 -0.52429,-70.91222 -0.69113,-106.36863c-0.0168,-3.63468 0.06836,-7.46634 1.15807,-10.86987c2.64346,-8.25653 13.85744,-19.27818 25.80775,-19.13683c39.57656,0.46867 79.16123,0.25259 118.743,0.16974c11.13694,-0.02317 22.27213,-0.65406 33.40965,-0.71141c11.96537,-0.06199 23.9319,0.29198 35.89843,0.33253c8.67307,0.02897 17.34845,-0.09791 26.02036,-0.26301c8.50622,-0.16221 17.0362,-7.71429 18.37907,-16.44123c0.58396,-3.79458 0.80584,-7.67837 0.80874,-11.52161c0.05098,-68.73686 0.2549,-137.47488 -0.13267,-206.20942c-0.07589,-13.50579 9.24312,-25.73881 22.34571,-29.40941c1.62558,-0.45535 3.43076,-0.36729 5.15309,-0.36787c46.52729,-0.02259 93.05806,0.3111 139.57957,-0.21667c15.45406,-0.17554 32.88826,12.85405 32.3715,32.65884c-0.49822,19.07948 -0.73342,38.17054 -0.77398,57.25696c-0.10602,49.62147 -0.05214,99.24351 -0.0168,148.86498c0.00232,2.87461 0.19002,5.78398 0.65753,8.61629c1.41819,8.59718 7.19869,14.65054 15.71244,16.36128c3.19266,0.64189 6.49655,1.02251 9.75003,1.02772c43.05714,0.06952 86.11428,0.10138 129.17142,0.0336c24.495,-0.03881 48.99,-0.21493 73.48385,-0.45651c9.36652,-0.09269 17.43188,2.76048 24.01474,9.51019c3.75634,3.85251 6.27698,8.31041 6.36852,13.83253c0.14483,8.6835 0.31284,17.36815 0.29951,26.05223c-0.06546,40.92812 -0.19813,81.85624 -0.28503,122.78437c-0.02317,10.69317 -4.55697,18.85006 -13.40383,24.81131c-4.74003,3.19382 -9.97018,3.93709 -15.44827,3.84092c-5.20697,-0.09269 -10.41162,-0.41016 -15.61801,-0.41132c-59.66174,-0.01796 -119.32348,-0.00811 -178.9858,0.03997c-5.97515,0.00463 -11.95436,0.22536 -17.92546,0.49532c-9.23038,0.41711 -17.45853,9.39375 -17.74182,19.5412c-0.21029,7.52485 -0.07184,15.05954 -0.07299,22.5896c-0.00174,9.84678 0.0139,19.69414 0.01738,29.5415c0.00348,7.4785 -0.11181,14.95874 0.0307,22.43492c0.15758,8.27971 0.78556,16.55536 0.79715,24.83333c0.04866,35.08448 -0.09269,70.16953 -0.07531,105.25458c0.00406,8.1175 0.05098,16.30335 -2.80799,23.9516c-4.14796,11.09638 -12.43694,17.74297 -24.07383,20.13269c-0.7508,0.1541 -1.51667,0.2381 -3.2587,0.45303c-4.51931,0.11297 -8.05551,0.12745 -11.59113,0.14251" id="cross"/>
   <path stroke="null" fill="#28546b" d="m970.91239,1132.90007c32.00942,0.01159 63.4847,0.17032 94.95709,-0.08864c8.82427,-0.07299 17.62653,-1.65803 26.46123,-2.03922c10.65668,-0.45998 21.03528,-2.41173 31.3542,-4.83215c36.53568,-8.57053 69.9071,-23.93016 100.02734,-46.4039c18.71508,-13.96288 34.94602,-30.41454 48.90658,-48.99696c16.53219,-22.00391 29.505,-46.07484 39.78106,-71.63928c9.98756,-24.84781 15.66436,-50.73956 19.23358,-77.13707c1.64818,-12.19015 2.50674,-24.48805 3.64627,-36.74482c2.08325,-22.39669 3.66597,-44.85131 6.27988,-67.18601c2.81899,-24.08136 8.77503,-47.35399 22.03519,-68.13436c17.07849,-26.7648 40.70045,-44.95385 71.22332,-54.02433c11.11087,-3.30215 22.49981,-4.98567 34.01852,-5.94619c6.50639,-0.54283 13.01047,-1.1181 19.97048,-1.71712c0.27402,-1.36141 0.81916,-2.81783 0.82264,-4.27542a35758.22991,35758.22991 0 0 0 0.07937,-90.91225c-0.00174,-6.18487 -0.84987,-6.77288 -6.89976,-7.34178c-28.48481,-2.67706 -55.9054,-9.35262 -80.91948,-23.64571c-15.46159,-8.8347 -27.75254,-21.29597 -37.70766,-36.13479c-11.35071,-16.91975 -18.62529,-35.44887 -22.41754,-55.34925c-1.68989,-8.8683 -2.84043,-17.85942 -3.80616,-26.84069c-1.70032,-15.8144 -3.19034,-31.65429 -4.53437,-47.50288c-0.77977,-9.20025 -0.85277,-18.46307 -1.70785,-27.65406c-0.74559,-8.00974 -2.08035,-15.96792 -3.26276,-23.93248c-2.97483,-20.0371 -7.02199,-39.84594 -13.20744,-59.1612c-14.9037,-46.53946 -40.66105,-85.88313 -78.47531,-117.00734c-33.22774,-27.34933 -71.12773,-45.10621 -113.15773,-54.29024c-21.79245,-4.76263 -43.82996,-6.36909 -66.05459,-6.34998c-16.60634,0.0139 -33.21384,0.06952 -49.82018,-0.02549c-12.12353,-0.06952 -24.24589,-0.36324 -36.37,-0.54225c-4.11031,-0.06025 -5.15425,0.77398 -5.21508,5.02448c-0.1402,9.8462 -0.09095,19.69472 -0.09385,29.54266c-0.00753,24.52339 -0.00232,49.04736 0.00174,73.57132c0,1.35098 -0.00348,2.70487 0.06431,4.05411c0.26475,5.23709 0.85624,5.87551 6.28162,5.88883c18.53781,0.04577 37.08083,-0.24795 55.61226,0.09559c19.09686,0.35397 38.11608,1.89207 56.65736,6.95711c40.16921,10.97415 69.98125,34.78091 88.91879,71.98687c10.8745,21.36549 16.81895,44.13005 19.26602,67.9009c1.39617,13.56141 3.16717,27.08632 4.39476,40.66163c1.22817,13.573 1.8828,27.19639 2.97773,40.78213c2.14987,26.67384 5.42422,53.19706 13.3795,78.86056c10.6868,34.47387 29.78945,63.31322 58.47471,85.5506c9.63533,7.46981 20.07707,13.55272 31.21922,18.48045c2.71587,1.20094 5.31414,2.67069 8.91175,4.49614c-2.46387,1.16444 -3.74939,1.91061 -5.12528,2.40188c-18.24641,6.51566 -34.18421,16.70772 -48.6482,29.55135c-23.60516,20.95996 -37.66768,47.46059 -46.01285,77.40877c-4.40634,15.81498 -6.98434,31.93585 -8.2322,48.31219c-1.12157,14.72238 -2.70429,29.40883 -4.00429,44.11788c-0.3221,3.64743 -0.19929,7.33425 -0.52197,10.98168c-0.74443,8.40426 -1.70901,16.78883 -2.4488,25.19425c-0.70678,8.0306 -0.96863,16.1087 -1.90308,24.10975c-3.07737,26.36159 -8.62383,52.06506 -21.3904,75.69745c-12.24287,22.66318 -29.77439,40.06377 -52.20757,52.68609c-24.41274,13.73579 -50.84906,19.87894 -78.55873,21.00283c-14.64764,0.59439 -29.32715,0.39684 -43.99159,0.59555c-9.82766,0.13324 -19.65417,0.38583 -29.48183,0.46925c-2.50442,0.02144 -3.48406,1.22643 -3.61267,3.48406c-0.06546,1.15575 -0.07995,2.31556 -0.07995,3.47363q0.00174,52.42714 0.01332,104.85485c0,1.15807 0.06315,2.31672 0.0533,3.47479c-0.02491,2.91342 1.48713,4.21574 4.84605,4.1862" id="right_brace"/>
   <path stroke="null" fill="#28546b" d="m585.46645,67.09997c-32.00942,-0.01159 -63.4847,-0.17032 -94.95709,0.08864c-8.82427,0.07299 -17.62653,1.65803 -26.46123,2.03922c-10.65668,0.45998 -21.03528,2.41173 -31.3542,4.83215c-36.53568,8.57053 -69.9071,23.93016 -100.02734,46.4039c-18.71508,13.96288 -34.94602,30.41454 -48.90658,48.99696c-16.53219,22.00391 -29.505,46.07484 -39.78106,71.63928c-9.98756,24.84781 -15.66436,50.73956 -19.23358,77.13707c-1.64818,12.19015 -2.50674,24.48805 -3.64627,36.74482c-2.08325,22.39669 -3.66597,44.85131 -6.27988,67.18601c-2.81899,24.08136 -8.77503,47.35399 -22.03519,68.13436c-17.07849,26.7648 -40.70045,44.95385 -71.22332,54.02433c-11.11087,3.30215 -22.49981,4.98567 -34.01852,5.94619c-6.50639,0.54283 -13.01047,1.1181 -19.97048,1.71712c-0.27402,1.36141 -0.81916,2.81783 -0.82264,4.27542a-35758.22991,-35758.22991 0 0 0 -0.07937,90.91225c0.00174,6.18487 0.84987,6.77288 6.89976,7.34178c28.48481,2.67706 55.9054,9.35262 80.91948,23.64571c15.46159,8.8347 27.75254,21.29597 37.70766,36.13479c11.35071,16.91975 18.62529,35.44887 22.41754,55.34925c1.68989,8.8683 2.84043,17.85942 3.80616,26.84069c1.70032,15.8144 3.19034,31.65429 4.53437,47.50288c0.77977,9.20025 0.85277,18.46307 1.70785,27.65406c0.74559,8.00974 2.08035,15.96792 3.26276,23.93248c2.97483,20.0371 7.02199,39.84594 13.20744,59.1612c14.9037,46.53946 40.66105,85.88313 78.47531,117.00734c33.22774,27.34933 71.12773,45.10621 113.15773,54.29024c21.79245,4.76263 43.82996,6.36909 66.05459,6.34998c16.60634,-0.0139 33.21384,-0.06952 49.82018,0.02549c12.12353,0.06952 24.24589,0.36324 36.37,0.54225c4.11031,0.06025 5.15425,-0.77398 5.21508,-5.02448c0.1402,-9.8462 0.09095,-19.69472 0.09385,-29.54266c0.00753,-24.52339 0.00232,-49.04736 -0.00174,-73.57132c0,-1.35098 0.00348,-2.70487 -0.06431,-4.05411c-0.26475,-5.23709 -0.85624,-5.87551 -6.28162,-5.88883c-18.53781,-0.04577 -37.08083,0.24795 -55.61226,-0.09559c-19.09686,-0.35397 -38.11608,-1.89207 -56.65736,-6.95711c-40.16921,-10.97415 -69.98125,-34.78091 -88.91879,-71.98687c-10.8745,-21.36549 -16.81895,-44.13005 -19.26602,-67.9009c-1.39617,-13.56141 -3.16717,-27.08632 -4.39476,-40.66163c-1.22817,-13.573 -1.8828,-27.19639 -2.97773,-40.78213c-2.14987,-26.67384 -5.42422,-53.19706 -13.3795,-78.86056c-10.6868,-34.47387 -29.78945,-63.31322 -58.47471,-85.5506c-9.63533,-7.46981 -20.07707,-13.55272 -31.21922,-18.48045c-2.71587,-1.20094 -5.31414,-2.67069 -8.91175,-4.49614c2.46387,-1.16444 3.74939,-1.91061 5.12528,-2.40188c18.24641,-6.51566 34.18421,-16.70772 48.6482,-29.55135c23.60516,-20.95996 37.66768,-47.46059 46.01285,-77.40877c4.40634,-15.81498 6.98434,-31.93585 8.2322,-48.31219c1.12157,-14.72238 2.70429,-29.40883 4.00429,-44.11788c0.3221,-3.64743 0.19929,-7.33425 0.52197,-10.98168c0.74443,-8.40426 1.70901,-16.78883 2.4488,-25.19425c0.70678,-8.0306 0.96863,-16.1087 1.90308,-24.10975c3.07737,-26.36159 8.62383,-52.06506 21.3904,-75.69745c12.24287,-22.66318 29.77439,-40.06377 52.20757,-52.68609c24.41274,-13.73579 50.84906,-19.87894 78.55873,-21.00283c14.64764,-0.59439 29.32715,-0.39684 43.99159,-0.59555c9.82766,-0.13324 19.65417,-0.38583 29.48183,-0.46925c2.50442,-0.02144 3.48406,-1.22643 3.61267,-3.48406c0.06546,-1.15575 0.07995,-2.31556 0.07995,-3.47363q-0.00174,-52.42714 -0.01332,-104.85485c0,-1.15807 -0.06315,-2.31672 -0.0533,-3.47479c0.02491,-2.91342 -1.48713,-4.21574 -4.84605,-4.1862" id="left_brace"/>
  </g>
  <!-- Text on the right -->
  <g id="svg_2">
   <text font-weight="600" fill="#28546B" font-size="910px" font-family="'Avenir Next', sans-serif" y="825.25282" x="1544.37288" id="main_title">ClinXML</text>
   <text font-weight="400" fill="#28546B" font-size="247px" font-family="'Avenir Next', sans-serif" y="1085.25173" x="1556.40631" id="subtitle" transform="matrix(1.0188 0 0 1 -2.28663 0)">The Unofficial EMIS XML Toolkit</text>
  </g>
 </g>

</svg>